<?xml version="1.0" encoding="utf-8"?>
<!-- Generator: Adobe Illustrator 27.9.0, SVG Export Plug-In . SVG Version: 6.00 Build 0)  -->
<svg version="1.1"
	 id="Layer_1" xmlns:rdf="http://www.w3.org/1999/02/22-rdf-syntax-ns#" xmlns:dc="http://purl.org/dc/elements/1.1/" xmlns:cc="http://creativecommons.org/ns#"
	 xmlns="http://www.w3.org/2000/svg" xmlns:xlink="http://www.w3.org/1999/xlink" x="0px" y="0px" viewBox="0 0 89.6 85.6"
	 style="enable-background:new 0 0 89.6 85.6;" xml:space="preserve">
<style type="text/css">
	.st0{fill:#131442;stroke:#131442;stroke-width:5.2725;stroke-miterlimit:2.0652;}
	.st1{fill:#1C1C59;stroke:#1C1C59;stroke-width:5.2725;stroke-miterlimit:2.0652;}
	.st2{fill:#25246F;stroke:#25246F;stroke-width:5.2725;stroke-miterlimit:2.0652;}
	.st3{fill:#2E2C86;stroke:#2E2C86;stroke-width:5.2725;stroke-miterlimit:2.0652;}
	.st4{fill:#37359D;stroke:#37359D;stroke-width:5.2725;stroke-miterlimit:2.0652;}
	.st5{fill:#403DB3;stroke:#403DB3;stroke-width:5.2725;stroke-miterlimit:2.0652;}
	.st6{fill:#4945CA;stroke:#4945CA;stroke-width:5.2725;stroke-miterlimit:2.0652;}
	.st7{fill:#524DE0;stroke:#524DE0;stroke-width:5.2725;stroke-miterlimit:2.0652;}
	.st8{fill:#5B55F7;stroke:#5B55F7;stroke-width:5.2725;stroke-miterlimit:2.0652;}
	.st9{fill:#5B55F7;}
</style>
<g id="logo-group" transform="translate(-28.929 -11.73) scale(1.0326)">
	<path id="path770320" class="st0" d="M133.3,81.5V24.8h1.6v55.1h35.6v1.6L133.3,81.5z"/>
	<path id="path770322" class="st1" d="M193.6,82.3c-2.7,0-5.3-0.6-7.8-1.7c-2.4-1.2-4.5-2.7-6.3-4.7c-1.8-2-3.3-4.3-4.3-7
		c-1.1-2.7-1.6-5.5-1.6-8.5c0-2.9,0.5-5.7,1.5-8.2c1-2.6,2.4-4.8,4.2-6.7c1.8-1.9,3.9-3.4,6.2-4.5c2.4-1.1,5-1.7,7.7-1.7
		c2.8,0,5.4,0.6,7.8,1.7c2.5,1.1,4.6,2.6,6.3,4.6c1.8,1.9,3.3,4.2,4.3,6.8s1.6,5.4,1.6,8.4v0.9h-38c0.2,2.7,0.8,5.2,1.8,7.5
		c1.1,2.3,2.4,4.3,4.1,6s3.5,3.1,5.7,4.1c2.2,1,4.5,1.4,6.9,1.4c1.6,0,3.1-0.2,4.6-0.6c1.5-0.4,3-1,4.3-1.8c1.3-0.8,2.5-1.7,3.5-2.8
		s1.8-2.2,2.4-3.5l1.5,0.4c-0.6,1.4-1.4,2.8-2.6,4c-1.1,1.2-2.3,2.2-3.8,3.1c-1.4,0.9-3,1.5-4.8,2C197.1,82.1,195.4,82.3,193.6,82.3
		L193.6,82.3z M211.5,60.1c-0.2-2.8-0.7-5.3-1.8-7.7c-1-2.3-2.3-4.3-4-6c-1.6-1.7-3.5-3-5.6-4c-2.1-1-4.4-1.4-6.9-1.4
		c-2.5,0-4.7,0.5-6.9,1.4c-2.1,1-4,2.3-5.7,4c-1.6,1.7-2.9,3.7-3.8,6.1c-1,2.3-1.5,4.9-1.7,7.6L211.5,60.1z"/>
	<path id="path770324" class="st2" d="M232.5,82.3c-1.9,0-3.6-0.3-5.3-1c-1.7-0.7-3.1-1.6-4.3-2.7c-1.2-1.2-2.1-2.5-2.8-4.1
		c-0.7-1.5-1-3.2-1-5c0-1.8,0.4-3.4,1.2-4.8c0.9-1.4,2-2.7,3.5-3.7c1.5-1.1,3.4-1.9,5.4-2.5c2.1-0.6,4.4-0.9,7-0.9
		c2.4,0,4.8,0.2,7.3,0.6c2.5,0.4,4.7,0.9,6.6,1.7v-4.7c0-2.1-0.3-4.1-1-5.8c-0.6-1.8-1.6-3.3-2.8-4.6c-1.2-1.3-2.6-2.3-4.3-3
		c-1.7-0.7-3.5-1-5.5-1s-4.2,0.5-6.5,1.4c-2.3,0.9-4.6,2.1-7,3.8l-1-1.3c5.3-3.6,10.1-5.4,14.4-5.4c2.3,0,4.4,0.4,6.2,1.1
		c1.9,0.7,3.5,1.8,4.8,3.2c1.3,1.4,2.3,3.1,3,5c0.7,2,1.1,4.2,1.1,6.6v22.9c0,1.1,0.4,1.6,1.3,1.6v1.6c-0.6,0-1-0.1-1.1-0.2
		c-0.5-0.2-1-0.6-1.3-1.1c-0.3-0.6-0.5-1.2-0.5-1.9v-3.8c-1.9,2.5-4.4,4.4-7.5,5.8C239.5,81.7,236.1,82.3,232.5,82.3L232.5,82.3z
		 M232.5,80.7c3.6,0,6.8-0.7,9.8-2c3-1.3,5.2-3.1,6.6-5.4c0.8-1.1,1.2-2.2,1.2-3.3v-8.2c-4.3-1.7-8.9-2.5-13.9-2.5
		c-2.3,0-4.5,0.2-6.4,0.7c-1.9,0.5-3.5,1.2-4.9,2.1c-1.3,0.9-2.4,2-3.1,3.3c-0.7,1.2-1.1,2.6-1.1,4.2c0,1.5,0.3,3,0.9,4.4
		c0.6,1.3,1.5,2.5,2.6,3.5c1.1,1,2.3,1.8,3.8,2.4C229.3,80.5,230.9,80.7,232.5,80.7L232.5,80.7z"/>
	<path id="path770326" class="st3" d="M276.6,82.3c-6.4,0-11.7-2.2-15.8-6.7l1.2-1c2.1,2.1,4.3,3.6,6.6,4.6c2.3,1,5,1.5,8,1.5
		c4.1,0,7.4-0.9,10-2.6c2.6-1.8,3.8-4.2,3.8-7.4c0-1.5-0.3-2.7-1-3.7c-0.6-1-1.6-1.9-2.8-2.6c-1.2-0.7-2.7-1.4-4.6-1.8
		c-1.8-0.5-3.9-1.1-6.2-1.6c-2.2-0.5-4.2-1-5.8-1.4c-1.7-0.5-3-1.1-4.2-1.8c-1.1-0.7-1.9-1.5-2.5-2.6c-0.5-1.1-0.8-2.4-0.8-4.1
		c0-2.1,0.4-3.8,1.2-5.3c0.8-1.5,1.9-2.7,3.2-3.7c1.3-1,2.9-1.7,4.6-2.1c1.8-0.5,3.6-0.7,5.6-0.7c3.4,0,6.2,0.6,8.6,1.8
		c2.4,1.1,4,2.5,5,4.2l-1.4,0.6c-1-1.7-2.7-2.9-5-3.8c-2.3-0.9-4.8-1.3-7.4-1.3c-1.7,0-3.3,0.2-4.9,0.6c-1.5,0.4-2.9,1-4.1,1.8
		s-2.1,1.8-2.8,3.1c-0.6,1.2-1,2.7-1,4.5c0,1.4,0.2,2.5,0.6,3.4c0.5,0.9,1.2,1.6,2.2,2.2c1,0.6,2.2,1.1,3.7,1.5
		c1.5,0.4,3.3,0.9,5.3,1.4c2.5,0.6,4.7,1.1,6.6,1.7c2,0.5,3.7,1.2,5,2c1.4,0.8,2.5,1.8,3.2,3c0.7,1.1,1.1,2.6,1.1,4.4
		s-0.4,3.5-1.1,5c-0.7,1.4-1.8,2.7-3.1,3.8c-1.3,1-3,1.8-4.9,2.4C281,82.1,278.9,82.3,276.6,82.3L276.6,82.3z"/>
	<path id="path770328" class="st4" d="M319.1,82.3c-2.7,0-5.3-0.6-7.8-1.7c-2.4-1.2-4.5-2.7-6.3-4.7c-1.8-2-3.3-4.3-4.3-7
		c-1.1-2.7-1.6-5.5-1.6-8.5c0-2.9,0.5-5.7,1.5-8.2c1-2.6,2.4-4.8,4.2-6.7c1.8-1.9,3.9-3.4,6.2-4.5c2.4-1.1,5-1.7,7.7-1.7
		c2.8,0,5.4,0.6,7.8,1.7c2.5,1.1,4.6,2.6,6.3,4.6c1.8,1.9,3.3,4.2,4.3,6.8s1.6,5.4,1.6,8.4v0.9h-38c0.2,2.7,0.8,5.2,1.8,7.5
		c1.1,2.3,2.4,4.3,4.1,6s3.5,3.1,5.7,4.1c2.2,1,4.5,1.4,6.9,1.4c1.6,0,3.1-0.2,4.6-0.6c1.5-0.4,3-1,4.3-1.8c1.3-0.8,2.5-1.7,3.5-2.8
		s1.8-2.2,2.4-3.5l1.5,0.4c-0.6,1.4-1.4,2.8-2.6,4c-1.1,1.2-2.3,2.2-3.8,3.1c-1.4,0.9-3,1.5-4.8,2C322.6,82.1,320.9,82.3,319.1,82.3
		L319.1,82.3z M337,60.1c-0.2-2.8-0.7-5.3-1.8-7.7c-1-2.3-2.3-4.3-4-6c-1.6-1.7-3.5-3-5.6-4c-2.1-1-4.4-1.4-6.9-1.4
		c-2.5,0-4.7,0.5-6.9,1.4c-2.1,1-4,2.3-5.7,4c-1.6,1.7-2.9,3.7-3.8,6.1c-1,2.3-1.5,4.9-1.7,7.6L337,60.1z"/>
	<path id="path770330" class="st5" d="M407.8,81.5h-1.6V58.5c0-6-0.9-10.4-2.7-13.2c-1.8-2.8-4.6-4.2-8.4-4.2c-2,0-3.8,0.4-5.6,1.1
		c-1.7,0.7-3.3,1.7-4.7,3c-1.4,1.3-2.6,2.8-3.7,4.6c-1,1.8-1.8,3.7-2.3,5.8v26.1h-1.6V58.5c0-6-0.9-10.4-2.6-13.2
		c-1.8-2.8-4.6-4.2-8.4-4.2c-1.9,0-3.8,0.3-5.5,1c-1.7,0.7-3.3,1.7-4.7,3c-1.4,1.2-2.6,2.7-3.7,4.5c-1.1,1.8-1.9,3.7-2.5,5.8v26.2
		h-1.6V40.1h1.6v10.7c1.8-3.6,4.1-6.4,6.9-8.4c2.8-2,5.9-3,9.2-3c3.5,0,6.4,1.1,8.6,3.3c2.2,2.2,3.6,5.1,4,8.8
		c4.2-8,9.7-12.1,16.6-12.1c4.3,0,7.5,1.6,9.6,4.7c2.1,3.1,3.1,7.9,3.1,14.3L407.8,81.5z"/>
	<path id="path770332" class="st6" d="M430.6,82.3c-1.9,0-3.6-0.3-5.3-1c-1.7-0.7-3.1-1.6-4.3-2.7c-1.2-1.2-2.1-2.5-2.8-4.1
		c-0.7-1.5-1-3.2-1-5c0-1.8,0.4-3.4,1.2-4.8c0.9-1.4,2-2.7,3.5-3.7c1.5-1.1,3.4-1.9,5.4-2.5c2.1-0.6,4.4-0.9,7-0.9
		c2.4,0,4.8,0.2,7.3,0.6c2.5,0.4,4.7,0.9,6.6,1.7v-4.7c0-2.1-0.3-4.1-1-5.8c-0.6-1.8-1.6-3.3-2.8-4.6c-1.2-1.3-2.6-2.3-4.3-3
		c-1.7-0.7-3.5-1-5.5-1s-4.2,0.5-6.5,1.4c-2.3,0.9-4.6,2.1-7,3.8l-1-1.3c5.3-3.6,10.1-5.4,14.4-5.4c2.3,0,4.4,0.4,6.2,1.1
		c1.9,0.7,3.5,1.8,4.8,3.2c1.3,1.4,2.3,3.1,3,5c0.7,2,1.1,4.2,1.1,6.6v22.9c0,1.1,0.4,1.6,1.3,1.6v1.6c-0.6,0-1-0.1-1.1-0.2
		c-0.5-0.2-1-0.6-1.3-1.1c-0.3-0.6-0.5-1.2-0.5-1.9v-3.8c-1.9,2.5-4.4,4.4-7.5,5.8C437.6,81.7,434.2,82.3,430.6,82.3L430.6,82.3z
		 M430.6,80.7c3.6,0,6.8-0.7,9.8-2c3-1.3,5.2-3.1,6.6-5.4c0.8-1.1,1.2-2.2,1.2-3.3v-8.2c-4.3-1.7-8.9-2.5-13.9-2.5
		c-2.3,0-4.5,0.2-6.4,0.7c-1.9,0.5-3.5,1.2-4.9,2.1c-1.3,0.9-2.4,2-3.1,3.3c-0.7,1.2-1.1,2.6-1.1,4.2c0,1.5,0.3,3,0.9,4.4
		c0.6,1.3,1.5,2.5,2.6,3.5c1.1,1,2.3,1.8,3.8,2.4C427.4,80.5,428.9,80.7,430.6,80.7L430.6,80.7z"/>
	<path id="path770334" class="st7" d="M478.4,79.6c0,0-0.2,0.1-0.6,0.4c-0.4,0.3-0.9,0.5-1.6,0.8c-0.6,0.3-1.4,0.5-2.3,0.7
		c-0.9,0.3-1.9,0.4-3,0.4c-1.9,0-3.6-0.6-5-1.8c-1.4-1.2-2.2-2.7-2.2-4.6V41.7h-6v-1.6h6V25.6h1.6v14.5h10v1.6h-10v33.9
		c0.1,1.5,0.7,2.7,1.8,3.6c1.1,0.8,2.4,1.2,3.8,1.2c0.9,0,1.8-0.1,2.6-0.2c0.8-0.2,1.5-0.4,2.1-0.6c0.6-0.3,1.1-0.5,1.4-0.7
		c0.4-0.2,0.6-0.3,0.6-0.4L478.4,79.6z"/>
	<path id="path770336" class="st8" d="M501.7,82.3c-2.7,0-5.3-0.6-7.8-1.7c-2.4-1.2-4.5-2.7-6.3-4.7c-1.8-2-3.3-4.3-4.3-7
		c-1.1-2.7-1.6-5.5-1.6-8.5c0-2.9,0.5-5.7,1.5-8.2c1-2.6,2.4-4.8,4.2-6.7c1.8-1.9,3.9-3.4,6.2-4.5c2.4-1.1,5-1.7,7.7-1.7
		c2.8,0,5.4,0.6,7.8,1.7c2.5,1.1,4.6,2.6,6.3,4.6c1.8,1.9,3.3,4.2,4.3,6.8s1.6,5.4,1.6,8.4v0.9h-38c0.2,2.7,0.8,5.2,1.8,7.5
		c1.1,2.3,2.4,4.3,4.1,6s3.5,3.1,5.7,4.1c2.2,1,4.5,1.4,6.9,1.4c1.6,0,3.1-0.2,4.6-0.6c1.5-0.4,3-1,4.3-1.8c1.3-0.8,2.5-1.7,3.5-2.8
		s1.8-2.2,2.4-3.5l1.5,0.4c-0.6,1.4-1.4,2.8-2.6,4c-1.1,1.2-2.3,2.2-3.8,3.1c-1.4,0.9-3,1.5-4.8,2C505.3,82.1,503.5,82.3,501.7,82.3
		L501.7,82.3z M519.6,60.1c-0.2-2.8-0.7-5.3-1.8-7.7c-1-2.3-2.3-4.3-4-6c-1.6-1.7-3.5-3-5.6-4c-2.1-1-4.4-1.4-6.9-1.4
		c-2.5,0-4.7,0.5-6.9,1.4c-2.1,1-4,2.3-5.7,4c-1.6,1.7-2.9,3.7-3.8,6.1c-1,2.3-1.5,4.9-1.7,7.6L519.6,60.1z"/>
	<path id="icon" class="st9" d="M45.9,11.4c-6.8,0-8,0-8.3,0c-0.2,0-0.6,0.1-0.7,0.1c-0.2,0-0.5,0.1-0.7,0.2
		c-0.2,0.1-0.6,0.2-0.8,0.2c-0.2,0.1-0.5,0.2-0.7,0.3c-0.2,0.1-0.5,0.2-0.7,0.3c-0.2,0.1-0.5,0.3-0.7,0.4c-0.2,0.1-0.4,0.3-0.6,0.4
		c-0.1,0.1-0.4,0.3-0.6,0.4s-0.5,0.4-0.7,0.6s-0.5,0.5-0.7,0.7c-0.2,0.2-0.4,0.5-0.5,0.6c-0.1,0.2-0.3,0.5-0.5,0.7
		c-0.1,0.2-0.3,0.6-0.5,0.8c-0.1,0.2-0.3,0.6-0.4,0.8c-0.1,0.2-0.2,0.5-0.3,0.7c-0.1,0.2-0.2,0.6-0.2,0.8c-0.1,0.2-0.1,0.6-0.2,0.7
		c0,0.2-0.1,0.5-0.1,0.8c0,0.4-0.1,1.1-0.1,4.5c0,2.2,0,10.2,0.1,17.6c0,9.1,0.1,16.1,0.1,21.3c0,4.2,0.1,8.4,0.1,9.2
		c0,0.8,0,1.9,0,2.3c0,0.4,0.1,1.1,0.1,1.5s0.1,1,0.1,1.4c0,0.4,0.1,0.9,0.1,1.1c0,0.2,0.1,0.7,0.2,1.1c0.1,0.4,0.3,0.9,0.4,1.3
		c0.1,0.3,0.3,0.8,0.4,1.1c0.1,0.3,0.3,0.8,0.5,1.2c0.2,0.4,0.5,1,0.7,1.3c0.2,0.3,0.5,0.8,0.7,1c0.2,0.2,0.5,0.7,0.7,0.9
		c0.2,0.3,0.6,0.7,0.8,0.9c0.2,0.3,0.7,0.7,0.9,0.9c0.3,0.3,0.7,0.6,0.9,0.8c0.2,0.2,0.6,0.5,0.8,0.6c0.2,0.1,0.6,0.4,0.9,0.6
		c0.3,0.2,0.8,0.4,1,0.6c0.3,0.2,0.7,0.4,1,0.5c0.3,0.1,0.7,0.3,1,0.4s0.8,0.3,1.1,0.3c0.3,0.1,0.8,0.2,1.1,0.3
		c0.3,0.1,0.7,0.1,1,0.2c0.3,0,0.7,0.1,1,0.1c0.2,0,0.6,0.1,0.8,0.1s0.8,0.1,1.3,0.1c0.6,0,1.1,0,1.6,0c0.4,0,1.3-0.1,1.9-0.1
		c0.6,0,2.1-0.1,3.2-0.1c1.1,0,2.7-0.1,3.7-0.1c0.9,0,2.5-0.1,3.5-0.1c1,0,2.6-0.1,3.5-0.1c0.9,0,2.6-0.1,3.7-0.1
		c1.1,0,3.3-0.1,4.9-0.1c1.5,0,3.8-0.1,4.9-0.1c1.1,0,3.3-0.1,4.8-0.1c1.5,0,5-0.1,7.8-0.2c2.8-0.1,5.2-0.1,5.5-0.2
		c0.4,0,0.6-0.1,0.8-0.1c0.2-0.1,0.4-0.1,0.5-0.2c0.1-0.1,0.3-0.2,0.4-0.3c0.1-0.1,0.2-0.2,0.3-0.3c0-0.1,0.1-0.2,0.1-0.3l0.1-0.2
		l0,0.2c0,0.1,0.1,0.3,0.1,0.4c0,0.1,0.1,0.3,0.2,0.4c0.1,0.1,0.2,0.2,0.3,0.3c0.1,0.1,0.2,0.1,0.3,0.2c0.1,0,0.3,0,0.9,0
		c0.4,0,1-0.1,1.3-0.1c0.3,0,0.8-0.1,1-0.2c0.3-0.1,0.7-0.1,1-0.2c0.3-0.1,0.7-0.2,1-0.3c0.3-0.1,0.7-0.3,1-0.4
		c0.3-0.1,0.7-0.3,1-0.5s0.7-0.4,1-0.5c0.2-0.1,0.7-0.4,0.9-0.6c0.3-0.2,0.7-0.4,0.8-0.6c0.2-0.1,0.5-0.4,0.7-0.6
		c0.2-0.2,0.6-0.5,0.8-0.8c0.2-0.2,0.6-0.6,0.8-0.8c0.2-0.2,0.5-0.6,0.7-0.8c0.2-0.2,0.5-0.7,0.7-0.9c0.2-0.3,0.5-0.7,0.6-0.9
		c0.1-0.2,0.4-0.7,0.6-1.1s0.4-0.9,0.5-1.2c0.1-0.3,0.3-0.8,0.4-1.1c0.1-0.3,0.2-0.7,0.3-1c0.1-0.3,0.2-0.7,0.2-0.9
		c0-0.2,0.1-0.6,0.1-0.9c0-0.3,0.1-0.8,0.1-1.1c0-0.3,0.1-1.5,0.1-2.6c0-1.1,0.1-2.1,0.1-2.2c0-0.1-0.1-0.4-0.1-0.5
		c0-0.1-0.1-0.4-0.2-0.5c-0.1-0.2-0.2-0.4-0.3-0.5c-0.1-0.1-0.3-0.3-0.4-0.4c-0.1-0.1-0.4-0.2-0.5-0.3s-0.4-0.1-0.5-0.2
		s-0.5-0.1-0.8-0.1c-0.3,0-1.4-0.1-2.4-0.1c-1,0-2.5-0.1-3.3-0.1c-0.8,0-2.2-0.1-3.1-0.1c-0.9,0-3-0.1-4.7-0.1
		c-1.7,0-3.1-0.1-3.1-0.1c0,0,0.1-6.7,0.3-14.8c0.3-10.5,0.4-17,0.5-22.7c0.1-4.4,0.1-8.2,0.2-8.4c0-0.3,0-1,0-1.7
		c0-0.6,0-1.4,0-1.7c0-0.3-0.1-0.6-0.1-0.8c0-0.1-0.1-0.5-0.2-0.7c-0.1-0.2-0.2-0.6-0.3-0.9c-0.1-0.2-0.3-0.6-0.4-0.9
		c-0.1-0.3-0.3-0.6-0.5-0.8c-0.1-0.2-0.3-0.5-0.5-0.7c-0.2-0.2-0.4-0.6-0.6-0.8c-0.2-0.2-0.5-0.5-0.7-0.7c-0.2-0.2-0.5-0.4-0.7-0.6
		c-0.2-0.1-0.5-0.4-0.7-0.5c-0.2-0.1-0.6-0.3-0.8-0.4c-0.2-0.1-0.6-0.3-0.8-0.4c-0.2-0.1-0.6-0.2-0.9-0.3c-0.3-0.1-0.7-0.2-0.9-0.2
		c-0.2-0.1-0.7-0.1-1-0.2c-0.4,0-0.8-0.1-1.4-0.1c-0.5,0-2.6,0-4.6-0.1c-2.1,0-5.2-0.1-7.1-0.1c-1.8,0-4.9-0.1-6.8-0.1
		c-1.9,0-5.7-0.1-8.5-0.1C56.1,11.4,50.2,11.4,45.9,11.4L45.9,11.4z M85.1,17.7c1.4,0,1.8,0,2,0.1c0.2,0,0.5,0.1,0.6,0.2
		c0.2,0.1,0.4,0.2,0.6,0.2c0.1,0.1,0.4,0.2,0.5,0.3c0.1,0.1,0.4,0.3,0.6,0.5c0.2,0.2,0.4,0.5,0.6,0.7c0.1,0.2,0.3,0.5,0.4,0.7
		c0.1,0.2,0.2,0.5,0.2,0.7l0.1,0.3l0,1.7c0,0.9,0.1,5.4,0.2,9.9c0.1,4.5,0.3,14.6,0.5,22.4c0.2,7.8,0.4,14.3,0.4,14.4v0.2l-6.7,0
		c-3.7,0-7.9,0-9.5,0c-1.5,0-3.7,0.1-4.7,0.1c-1,0-2.9,0.1-4,0.1c-1.2,0-3,0.1-4.1,0.1c-1.1,0-2.2,0.1-2.4,0.1
		c-0.3,0-0.5,0.1-0.7,0.1c-0.1,0.1-0.4,0.1-0.5,0.2c-0.1,0.1-0.3,0.2-0.4,0.3s-0.3,0.3-0.4,0.4c-0.1,0.1-0.2,0.4-0.3,0.5
		c-0.1,0.1-0.2,0.4-0.2,0.6c-0.1,0.2-0.1,0.4-0.1,0.7c0,0.2,0,1.3,0.1,2.3c0.1,1.4,0.1,2,0,2.6c0,0.4-0.1,0.9-0.1,1.1
		c0,0.2-0.1,0.6-0.1,0.8c0,0.2-0.1,0.5-0.2,0.8c-0.1,0.2-0.2,0.6-0.2,0.8c-0.1,0.2-0.2,0.6-0.3,0.7c-0.1,0.2-0.3,0.6-0.4,0.9
		c-0.2,0.3-0.4,0.8-0.6,1.1c-0.2,0.3-0.5,0.7-0.7,0.9c-0.2,0.3-0.6,0.7-0.9,1c-0.3,0.3-0.7,0.7-0.9,0.9c-0.2,0.2-0.5,0.4-0.7,0.6
		c-0.2,0.2-0.6,0.4-0.8,0.5c-0.2,0.1-0.6,0.4-0.9,0.5l-0.6,0.3l-2,0c-1.4,0-2.1,0-2.4,0c-0.2,0-0.6-0.1-0.8-0.1
		c-0.2,0-0.6-0.1-0.8-0.1c-0.2,0-0.6-0.1-0.8-0.2c-0.2-0.1-0.7-0.2-0.9-0.3c-0.3-0.1-0.6-0.2-0.8-0.3c-0.2-0.1-0.5-0.2-0.7-0.3
		c-0.2-0.1-0.6-0.3-0.7-0.4c-0.2-0.1-0.5-0.3-0.7-0.4c-0.2-0.1-0.5-0.3-0.6-0.4c-0.1-0.1-0.4-0.3-0.6-0.5c-0.2-0.2-0.6-0.5-0.8-0.8
		c-0.2-0.2-0.5-0.6-0.6-0.7c-0.1-0.2-0.4-0.5-0.5-0.8c-0.2-0.3-0.4-0.7-0.6-1c-0.2-0.3-0.3-0.7-0.4-0.9c-0.1-0.2-0.2-0.6-0.3-0.8
		c-0.1-0.2-0.2-0.6-0.2-0.8c-0.1-0.2-0.1-0.6-0.2-0.8c0-0.2-0.1-0.8-0.1-1.2c0-0.4-0.1-1.4-0.1-2.2c0-1,0-1.9,0-3.1
		c0-0.9,0.1-5.3,0.1-9.7c0-4.4,0.1-15,0.1-23.6c0-8.6,0.1-16.2,0.1-16.9l0-1.3l0.1-0.3c0-0.2,0.1-0.4,0.2-0.6
		c0.1-0.2,0.2-0.5,0.3-0.6s0.3-0.4,0.5-0.6s0.4-0.3,0.5-0.4c0.1-0.1,0.4-0.2,0.5-0.3c0.2-0.1,0.4-0.2,0.6-0.3
		c0.2-0.1,0.5-0.1,0.6-0.1c0.2,0,3.1-0.1,8.3-0.1c4.4,0,10.3-0.1,13-0.1c2.8,0,6.5-0.1,8.4-0.1c1.9,0,5-0.1,7-0.1c2,0,4.7-0.1,6-0.1
		C82.3,17.7,84.1,17.7,85.1,17.7L85.1,17.7z M63.6,76.3c0.1,0,0.6,0,1.2,0c0.6,0,2,0.1,3.2,0.1c1.2,0,3,0.1,4.1,0.1
		c1,0,3,0.1,4.2,0.1c1.3,0,4.5,0,7.1,0.1c2.8,0,6.5,0,9,0c2.3,0,5.1-0.1,6.2-0.1c1.1,0,2.7-0.1,3.6-0.1c0.9,0,2.6-0.1,3.7-0.1
		c1.1,0,2.3-0.1,2.6-0.1l0.5,0l0,0.9c0,0.5,0,1.1,0,1.3c0,0.2-0.1,0.6-0.1,0.8c0,0.2-0.1,0.6-0.1,0.8s-0.1,0.5-0.2,0.7
		c-0.1,0.2-0.1,0.5-0.2,0.7c-0.1,0.2-0.2,0.5-0.3,0.7c-0.1,0.2-0.3,0.6-0.4,0.8c-0.1,0.2-0.3,0.6-0.4,0.8c-0.1,0.2-0.4,0.6-0.5,0.8
		c-0.2,0.2-0.4,0.5-0.5,0.7c-0.1,0.2-0.4,0.5-0.6,0.7c-0.2,0.2-0.5,0.6-0.8,0.8c-0.2,0.2-0.6,0.5-0.8,0.7c-0.2,0.1-0.5,0.4-0.7,0.5
		c-0.2,0.1-0.6,0.4-0.8,0.5c-0.2,0.1-0.7,0.3-0.9,0.5c-0.3,0.1-0.7,0.3-1,0.4c-0.3,0.1-0.8,0.2-1,0.3c-0.3,0.1-0.7,0.2-0.9,0.2
		c-0.2,0-0.5,0.1-0.6,0.1c-0.1,0-0.2,0.1-0.2,0.2c-0.1,0.1-0.2,0.2-0.2,0.3c0,0.1-0.1,0.3-0.1,0.4c0,0.1-0.1,0.3-0.1,0.4
		c0,0.1,0,0.1,0,0.1s0,0,0-0.1c0,0,0-0.1-0.1-0.2c0-0.1-0.2-0.3-0.3-0.4c-0.1-0.1-0.3-0.3-0.5-0.4c-0.2-0.1-0.4-0.2-0.6-0.2
		c-0.1,0-0.4-0.1-0.5-0.1c-0.2,0-1.9-0.1-3.9-0.1c-2,0-4.2-0.1-5-0.1c-0.8,0-2-0.1-2.8-0.1c-0.8,0-2.1-0.1-2.9-0.1
		c-0.8,0-2.7-0.1-4.3-0.1c-1.6,0-3.5-0.1-4.3-0.1c-0.8,0-2.7-0.1-4.3-0.1c-1.6,0-3.2-0.1-3.6-0.1c-0.4,0-2,0-3.5-0.1
		c-1.5,0-2.8-0.1-2.9-0.1c-0.1,0-0.1,0,0.3-0.4c0.2-0.2,0.6-0.5,0.8-0.8c0.2-0.2,0.5-0.6,0.7-0.8c0.2-0.2,0.5-0.6,0.6-0.8
		s0.4-0.5,0.5-0.7c0.1-0.2,0.3-0.5,0.4-0.7c0.1-0.2,0.4-0.6,0.5-0.9s0.4-0.8,0.5-1.1c0.1-0.3,0.3-0.8,0.4-1.2
		c0.1-0.4,0.3-0.9,0.3-1.2c0.1-0.3,0.2-0.7,0.2-0.9c0-0.2,0.1-0.6,0.1-0.8c0-0.3,0.1-0.7,0.1-1c0-0.3,0.1-0.8,0.1-1l0-0.5L63.6,76.3
		z M62.9,26c-1.8,0-3.6,0-4,0c-0.4,0-1.2,0-1.6,0.1c-0.4,0-1.2,0.1-1.7,0.1c-0.5,0-1.2,0.1-1.6,0.1c-0.4,0-1.1,0.1-1.7,0.1
		c-0.5,0.1-1.4,0.1-1.8,0.2c-0.4,0-1.2,0.1-1.7,0.2c-0.5,0.1-1.3,0.2-1.9,0.3c-0.6,0.1-1.5,0.2-2,0.3c-0.5,0.1-1.3,0.2-1.6,0.3
		c-0.3,0.1-0.6,0.1-0.6,0.1c0,0-0.1,0.1-0.1,0.2c0,0.1-0.1,0.3-0.1,0.5c0,0.2-0.1,0.6-0.1,0.9c0,0.3,0,0.6,0,0.8
		c0,0.1,0.1,0.3,0.1,0.4s0.1,0.2,0.1,0.3c0.1,0.1,0.2,0.1,0.6,0.2c0.3,0.1,1.1,0.2,1.7,0.3c0.6,0.1,1.4,0.2,1.9,0.3
		c0.4,0.1,1.3,0.2,1.9,0.3c0.6,0.1,1.6,0.2,2.2,0.3c0.6,0.1,1.5,0.1,2,0.2c0.6,0,1.5,0.1,2.1,0.2c0.6,0,1.4,0.1,1.8,0.1
		c0.4,0,1.2,0.1,1.8,0.1c0.6,0,2.2,0,3.8,0c1.6,0,3.2,0,3.8,0c0.6,0,1.5-0.1,2.1-0.1c0.5,0,1.3-0.1,1.8-0.1c0.4,0,1.1-0.1,1.4-0.1
		c0.3,0,1.1-0.1,1.7-0.2c0.6-0.1,1.5-0.2,2-0.2c0.5-0.1,1.3-0.2,1.9-0.2c0.5-0.1,1.4-0.2,1.9-0.3c0.5-0.1,1.4-0.2,2-0.3
		c0.6-0.1,1.1-0.2,1.1-0.2c0,0,0.1-0.1,0.1-0.2c0-0.1,0.1-0.3,0.1-0.4c0.1-0.2,0.1-0.5,0.1-1c0-0.5,0-0.8-0.1-1
		c0-0.1-0.1-0.3-0.1-0.4c0-0.1-0.1-0.2-0.1-0.2c0,0,0,0,0,0c0,0-0.1,0-0.3,0c-0.1,0-0.7-0.1-1.2-0.2c-0.5-0.1-1.4-0.2-1.9-0.3
		c-0.5-0.1-1.5-0.2-2.1-0.3c-0.6-0.1-1.6-0.2-2.3-0.3c-0.6-0.1-1.6-0.2-2.2-0.2c-0.6-0.1-1.5-0.1-2-0.2c-0.6,0-1.4-0.1-1.7-0.1
		c-0.4,0-1.1-0.1-1.5-0.1C66.5,26,64.7,26,62.9,26L62.9,26z M63,40.6c-1.6,0-3.4,0-3.8,0c-0.5,0-1.3,0-1.7,0.1
		c-0.5,0-1.2,0.1-1.7,0.1c-0.5,0-1.3,0.1-1.8,0.1S52.6,41,52.2,41c-0.4,0-1.1,0.1-1.6,0.2c-0.5,0.1-1.3,0.1-1.9,0.2
		c-0.5,0.1-1.3,0.2-1.8,0.2c-0.4,0.1-1.1,0.2-1.6,0.2c-0.4,0.1-1.2,0.2-1.8,0.3c-0.8,0.1-1,0.2-1,0.2c0,0-0.1,0.2-0.1,0.3
		c0,0.1-0.1,0.3-0.1,0.5c0,0.2,0,0.6,0,0.9c0,0.4,0,0.7,0.1,0.9c0,0.1,0.1,0.3,0.1,0.4l0.1,0.1l1,0.2c0.5,0.1,1.4,0.2,2,0.3
		c0.6,0.1,1.5,0.2,2,0.3c0.5,0.1,1.4,0.2,2,0.3c0.6,0.1,1.4,0.2,1.8,0.2c0.4,0,1.1,0.1,1.6,0.1c0.5,0,1.2,0.1,1.6,0.1
		c0.4,0,1,0.1,1.4,0.1c0.3,0,1,0.1,1.4,0.1c0.4,0,1.3,0.1,2,0.1c0.6,0,2,0,3,0c1,0,2.3,0,3,0c0.7,0,1.6-0.1,2-0.1
		c0.5,0,1.3-0.1,2-0.1c0.6,0,1.4-0.1,1.8-0.1c0.4,0,0.9-0.1,1.3-0.1c0.3,0,1-0.1,1.5-0.1c0.5-0.1,1.3-0.1,1.9-0.2
		c0.6-0.1,1.4-0.2,1.9-0.3c0.5-0.1,1.3-0.2,1.7-0.3c0.4-0.1,1.2-0.2,1.8-0.3c0.7-0.1,1-0.2,1-0.2c0,0,0.1-0.2,0.1-0.3
		c0-0.1,0.1-0.4,0.1-0.6c0-0.2,0-0.6,0-0.9c0-0.3,0-0.6-0.1-0.8c0-0.2-0.1-0.4-0.1-0.4c0-0.1-0.1-0.2-0.1-0.2c0,0,0,0,0,0
		c0,0-0.2,0-0.5-0.1c-0.3,0-0.9-0.2-1.5-0.3c-0.5-0.1-1.4-0.2-2-0.3c-0.5-0.1-1.4-0.2-1.9-0.3c-0.5-0.1-1.3-0.2-1.8-0.2
		c-0.5-0.1-1.4-0.1-2-0.2c-0.5,0-1.3-0.1-1.7-0.1c-0.4,0-1.1-0.1-1.6-0.1c-0.5,0-1.4-0.1-2.1-0.1C66.3,40.6,65,40.6,63,40.6L63,40.6
		z M63,55.2c-1.4,0-2.8,0-3,0c-0.2,0-0.9,0-1.5,0c-0.6,0-1.4,0.1-1.8,0.1c-0.4,0-1.1,0.1-1.5,0.1c-0.4,0-1.2,0.1-1.7,0.1
		c-0.5,0-1.4,0.1-2,0.2c-0.6,0.1-1.6,0.2-2.2,0.2c-0.6,0.1-1.7,0.2-2.5,0.3c-0.8,0.1-2,0.3-2.7,0.4c-0.7,0.1-1.3,0.2-1.4,0.2
		c-0.1,0-0.2,0.1-0.2,0.1c0,0-0.1,0.2-0.1,0.3c0,0.1-0.1,0.3-0.1,0.5c0,0.2,0,0.5,0,0.9c0,0.4,0,0.7,0.1,0.8c0,0.1,0.1,0.3,0.1,0.4
		c0,0.1,0.1,0.1,0.1,0.1c0,0,0.4,0.1,0.9,0.2c0.4,0.1,1.2,0.2,1.7,0.3c0.5,0.1,1.3,0.2,1.7,0.3c0.4,0.1,1.3,0.2,1.9,0.3
		c0.6,0.1,1.5,0.2,2,0.2c0.5,0,1.2,0.1,1.7,0.2c0.4,0,1.1,0.1,1.5,0.1c0.4,0,1,0.1,1.3,0.1c0.3,0,1,0.1,1.6,0.1
		c0.6,0,1.7,0.1,2.4,0.1c0.9,0,2.3,0,4,0c1.5,0,3,0,3.5-0.1c0.4,0,1.1-0.1,1.5-0.1c0.4,0,1.1-0.1,1.5-0.1c0.4,0,1.2-0.1,1.7-0.1
		c0.5,0,1.3-0.1,1.8-0.2c0.5,0,1.3-0.1,1.7-0.2c0.4,0,1.2-0.1,1.8-0.2c0.5-0.1,1.4-0.2,1.9-0.3c0.5-0.1,1.3-0.2,1.7-0.3
		c0.4-0.1,1-0.2,1.3-0.2c0.4-0.1,0.5-0.1,0.6-0.2c0,0,0.1-0.2,0.1-0.3c0-0.1,0.1-0.4,0.1-0.5c0-0.1,0-0.5,0-0.7s0-0.5,0-0.7
		c0-0.1-0.1-0.4-0.1-0.5c0-0.1-0.1-0.3-0.1-0.3c0-0.1-0.1-0.1-0.1-0.1c0,0-0.3,0-1.1-0.1c-0.6-0.1-1.5-0.2-2-0.3
		c-0.5-0.1-1.5-0.2-2.2-0.3c-0.7-0.1-1.7-0.2-2.4-0.3c-0.6-0.1-1.6-0.2-2.1-0.2c-0.5-0.1-1.4-0.1-2-0.2c-0.5,0-1.4-0.1-2-0.1
		c-0.5,0-1.4-0.1-1.9-0.1C66.1,55.2,64.5,55.2,63,55.2L63,55.2z"/>
</g>
</svg>
